<svg width="24" height="24" viewBox="0 0 24 24" fill="none" xmlns="http://www.w3.org/2000/svg">
<path fill-rule="evenodd" clip-rule="evenodd" d="M7.34435 4.01693C10.4382 3.67437 13.5605 3.67437 16.6543 4.01693C18.3673 4.20893 19.7493 5.55792 19.9503 7.27692C20.317 10.4149 20.317 13.5849 19.9503 16.7229C19.7493 18.4419 18.3673 19.7909 16.6543 19.9829C13.5605 20.3255 10.4382 20.3255 7.34435 19.9829C5.63135 19.7909 4.24935 18.4419 4.04835 16.7229C3.6818 13.5853 3.6818 10.4156 4.04835 7.27792C4.15001 6.4428 4.53073 5.66647 5.12878 5.07477C5.72683 4.48307 6.50718 4.11067 7.34335 4.01792M11.9993 7.00692C12.1983 7.00692 12.389 7.08594 12.5297 7.22659C12.6703 7.36725 12.7493 7.55801 12.7493 7.75692V11.2499H16.2423C16.4413 11.2499 16.632 11.3289 16.7727 11.4696C16.9133 11.6102 16.9923 11.801 16.9923 11.9999C16.9923 12.1988 16.9133 12.3896 16.7727 12.5303C16.632 12.6709 16.4413 12.7499 16.2423 12.7499H12.7493V16.2429C12.7493 16.4418 12.6703 16.6326 12.5297 16.7733C12.389 16.9139 12.1983 16.9929 11.9993 16.9929C11.8004 16.9929 11.6097 16.9139 11.469 16.7733C11.3284 16.6326 11.2493 16.4418 11.2493 16.2429V12.7499H7.75635C7.55743 12.7499 7.36667 12.6709 7.22602 12.5303C7.08536 12.3896 7.00635 12.1988 7.00635 11.9999C7.00635 11.801 7.08536 11.6102 7.22602 11.4696C7.36667 11.3289 7.55743 11.2499 7.75635 11.2499H11.2493V7.75692C11.2493 7.55801 11.3284 7.36725 11.469 7.22659C11.6097 7.08594 11.8004 7.00692 11.9993 7.00692Z" fill="black"/>
</svg>
