<svg width="24" height="24" viewBox="0 0 24 24" fill="none" xmlns="http://www.w3.org/2000/svg">
<path fill-rule="evenodd" clip-rule="evenodd" d="M7.34532 4.01693C10.4392 3.67437 13.5614 3.67437 16.6553 4.01693C18.3683 4.20893 19.7503 5.55792 19.9513 7.27692C20.3179 10.4149 20.3179 13.5849 19.9513 16.7229C19.7503 18.4419 18.3683 19.7909 16.6553 19.9829C13.5614 20.3255 10.4392 20.3255 7.34532 19.9829C5.63232 19.7909 4.25032 18.4419 4.04932 16.7229C3.68278 13.5853 3.68278 10.4156 4.04932 7.27792C4.15099 6.4428 4.5317 5.66647 5.12976 5.07477C5.72781 4.48307 6.50816 4.11067 7.34432 4.01792M12.0003 7.00692C12.1992 7.00692 12.39 7.08594 12.5307 7.22659C12.6713 7.36725 12.7503 7.55801 12.7503 7.75692V11.2499H16.2433C16.4422 11.2499 16.633 11.3289 16.7737 11.4696C16.9143 11.6102 16.9933 11.801 16.9933 11.9999C16.9933 12.1988 16.9143 12.3896 16.7737 12.5303C16.633 12.6709 16.4422 12.7499 16.2433 12.7499H12.7503V16.2429C12.7503 16.4418 12.6713 16.6326 12.5307 16.7733C12.39 16.9139 12.1992 16.9929 12.0003 16.9929C11.8014 16.9929 11.6106 16.9139 11.47 16.7733C11.3293 16.6326 11.2503 16.4418 11.2503 16.2429V12.7499H7.75732C7.55841 12.7499 7.36765 12.6709 7.22699 12.5303C7.08634 12.3896 7.00732 12.1988 7.00732 11.9999C7.00732 11.801 7.08634 11.6102 7.22699 11.4696C7.36765 11.3289 7.55841 11.2499 7.75732 11.2499H11.2503V7.75692C11.2503 7.55801 11.3293 7.36725 11.47 7.22659C11.6106 7.08594 11.8014 7.00692 12.0003 7.00692Z" fill="#006ACB"/>
</svg>
