<svg width="24" height="24" viewBox="0 0 24 24" fill="none" xmlns="http://www.w3.org/2000/svg">
<path d="M12 3.75C8.91 3.75 6.48 6.0975 6.14025 9.09375C5.48688 9.19944 4.87418 9.47962 4.36686 9.9047C3.85954 10.3298 3.47643 10.884 3.258 11.5087C1.413 12.0405 0 13.686 0 15.75C0 18.243 2.007 20.25 4.5 20.25H19.5C21.993 20.25 24 18.243 24 15.75C24 14.43 23.3587 13.248 22.4295 12.4215C22.2555 9.786 20.1532 7.683 17.508 7.5465C16.605 5.34975 14.5335 3.75 12 3.75ZM12 5.25C14.0715 5.25 15.7275 6.5775 16.3125 8.46L16.4775 9H17.25C19.3162 9 21 10.6838 21 12.75V13.125L21.3045 13.3597C21.672 13.6414 21.9706 14.003 22.1777 14.4171C22.3849 14.8312 22.4951 15.287 22.5 15.75C22.5 17.457 21.207 18.75 19.5 18.75H4.5C2.793 18.75 1.5 17.457 1.5 15.75C1.5 14.235 2.5875 13.059 3.96 12.8205L4.45275 12.7267L4.5465 12.234C4.7715 11.2222 5.667 10.5 6.75 10.5H7.5V9.75C7.5 7.2225 9.4725 5.25 12 5.25ZM11.25 9V13.9222L9.54 12.2108L8.46 13.2908L11.46 16.2908L12 16.8053L12.54 16.29L15.54 13.29L14.46 12.21L12.75 13.9222V9H11.25Z" fill="#B3B3B3"/>
</svg>
