<svg width="44" height="32" viewBox="0 0 44 32" fill="none" xmlns="http://www.w3.org/2000/svg">
<path d="M22.0234 7.02441H15.0234C14.493 7.02441 13.9843 7.23513 13.6092 7.6102C13.2342 7.98527 13.0234 8.49398 13.0234 9.02441V23.0244C13.0234 23.5548 13.2342 24.0636 13.6092 24.4386C13.9843 24.8137 14.493 25.0244 15.0234 25.0244H29.0234C29.5539 25.0244 30.0626 24.8137 30.4377 24.4386C30.8127 24.0636 31.0234 23.5548 31.0234 23.0244V16.0244" stroke="black" stroke-width="2" stroke-linecap="round" stroke-linejoin="round"/>
<path d="M28.3985 6.64964C28.7964 6.25182 29.3359 6.02832 29.8985 6.02832C30.4611 6.02832 31.0007 6.25182 31.3985 6.64964C31.7964 7.04747 32.0199 7.58703 32.0199 8.14964C32.0199 8.71225 31.7964 9.25182 31.3985 9.64964L22.3855 18.6636C22.1481 18.9009 21.8547 19.0746 21.5325 19.1686L18.6595 20.0086C18.5735 20.0337 18.4823 20.0352 18.3954 20.013C18.3086 19.9908 18.2294 19.9456 18.166 19.8822C18.1026 19.8188 18.0574 19.7396 18.0352 19.6527C18.0129 19.5659 18.0144 19.4747 18.0395 19.3886L18.8795 16.5156C18.9741 16.1937 19.1481 15.9007 19.3855 15.6636L28.3985 6.64964Z" stroke="black" stroke-width="2" stroke-linecap="round" stroke-linejoin="round"/>
</svg>
