<svg width="15" height="16" viewBox="0 0 15 16" fill="none" xmlns="http://www.w3.org/2000/svg">
<path d="M1.25 3.36401C1.25 3.19825 1.31585 3.03928 1.43306 2.92207C1.55027 2.80486 1.70924 2.73901 1.875 2.73901H13.125C13.2908 2.73901 13.4497 2.80486 13.5669 2.92207C13.6842 3.03928 13.75 3.19825 13.75 3.36401C13.75 3.52977 13.6842 3.68875 13.5669 3.80596C13.4497 3.92317 13.2908 3.98901 13.125 3.98901H1.875C1.70924 3.98901 1.55027 3.92317 1.43306 3.80596C1.31585 3.68875 1.25 3.52977 1.25 3.36401ZM3.75 7.11401C3.75 6.94825 3.81585 6.78928 3.93306 6.67207C4.05027 6.55486 4.20924 6.48901 4.375 6.48901H10.625C10.7908 6.48901 10.9497 6.55486 11.0669 6.67207C11.1842 6.78928 11.25 6.94825 11.25 7.11401C11.25 7.27977 11.1842 7.43875 11.0669 7.55596C10.9497 7.67317 10.7908 7.73901 10.625 7.73901H4.375C4.20924 7.73901 4.05027 7.67317 3.93306 7.55596C3.81585 7.43875 3.75 7.27977 3.75 7.11401ZM6.25 10.239C6.08424 10.239 5.92527 10.3049 5.80806 10.4221C5.69085 10.5393 5.625 10.6983 5.625 10.864C5.625 11.0298 5.69085 11.1887 5.80806 11.306C5.92527 11.4232 6.08424 11.489 6.25 11.489H8.75C8.91576 11.489 9.07473 11.4232 9.19194 11.306C9.30915 11.1887 9.375 11.0298 9.375 10.864C9.375 10.6983 9.30915 10.5393 9.19194 10.4221C9.07473 10.3049 8.91576 10.239 8.75 10.239H6.25Z" fill="#777777"/>
</svg>
