<svg width="22" height="22" viewBox="0 0 22 22" fill="none" xmlns="http://www.w3.org/2000/svg">
<path d="M9.86379 2.65626C10.1656 2.38511 10.557 2.23511 10.9627 2.23511C11.3684 2.23511 11.7598 2.38511 12.0616 2.65626L18.0904 8.07345C18.2618 8.2276 18.3989 8.41607 18.4928 8.62663C18.5866 8.83719 18.6352 9.06513 18.6352 9.29566V17.029C18.6352 17.4651 18.462 17.8833 18.1536 18.1917C17.8453 18.5 17.4271 18.6733 16.991 18.6733H14.2506C13.8145 18.6733 13.3963 18.5 13.088 18.1917C12.7796 17.8833 12.6064 17.4651 12.6064 17.029V13.1925C12.6064 13.0471 12.5486 12.9077 12.4458 12.8049C12.3431 12.7022 12.2037 12.6444 12.0583 12.6444H9.86599C9.72063 12.6444 9.58122 12.7022 9.47844 12.8049C9.37565 12.9077 9.31791 13.0471 9.31791 13.1925V17.029C9.31791 17.4651 9.14468 17.8833 8.83633 18.1917C8.52797 18.5 8.10976 18.6733 7.67368 18.6733H4.93329C4.49722 18.6733 4.079 18.5 3.77065 18.1917C3.46229 17.8833 3.28906 17.4651 3.28906 17.029V9.29566C3.28906 8.8298 3.48637 8.38585 3.83495 8.07345L9.86379 2.65626ZM11.3283 3.4718C11.2277 3.38151 11.0973 3.33158 10.9621 3.33158C10.827 3.33158 10.6966 3.38151 10.596 3.4718L4.56718 8.88899C4.51006 8.94026 4.46436 9.00295 4.43301 9.073C4.40167 9.14306 4.38538 9.21891 4.38522 9.29566V17.029C4.38522 17.1744 4.44296 17.3138 4.54574 17.4166C4.64853 17.5194 4.78793 17.5771 4.93329 17.5771H7.67368C7.81904 17.5771 7.95844 17.5194 8.06123 17.4166C8.16401 17.3138 8.22176 17.1744 8.22176 17.029V13.1925C8.22176 12.7564 8.39499 12.3382 8.70334 12.0298C9.01169 11.7215 9.42991 11.5483 9.86599 11.5483H12.0583C12.4944 11.5483 12.9126 11.7215 13.2209 12.0298C13.5293 12.3382 13.7025 12.7564 13.7025 13.1925V17.029C13.7025 17.1744 13.7603 17.3138 13.8631 17.4166C13.9658 17.5194 14.1052 17.5771 14.2506 17.5771H16.991C17.1363 17.5771 17.2758 17.5194 17.3785 17.4166C17.4813 17.3138 17.5391 17.1744 17.5391 17.029V9.29566C17.5389 9.21891 17.5226 9.14306 17.4913 9.073C17.4599 9.00295 17.4142 8.94026 17.3571 8.88899L11.3283 3.4718Z" fill="black"/>
<path d="M11.3283 3.4718C11.2277 3.38151 11.0973 3.33158 10.9621 3.33158C10.827 3.33158 10.6966 3.38151 10.596 3.4718L4.56718 8.88899C4.51006 8.94026 4.46436 9.00295 4.43301 9.073C4.40167 9.14306 4.38538 9.21891 4.38522 9.29566V17.029C4.38522 17.1744 4.44296 17.3138 4.54574 17.4166C4.64853 17.5194 4.78793 17.5771 4.93329 17.5771H7.67368C7.81904 17.5771 7.95844 17.5194 8.06123 17.4166C8.16401 17.3138 8.22176 17.1744 8.22176 17.029V13.1925C8.22176 12.7564 8.39499 12.3382 8.70334 12.0298C9.01169 11.7215 9.42991 11.5483 9.86599 11.5483H12.0583C12.4944 11.5483 12.9126 11.7215 13.2209 12.0298C13.5293 12.3382 13.7025 12.7564 13.7025 13.1925V17.029C13.7025 17.1744 13.7603 17.3138 13.8631 17.4166C13.9658 17.5194 14.1052 17.5771 14.2506 17.5771H16.991C17.1363 17.5771 17.2758 17.5194 17.3785 17.4166C17.4813 17.3138 17.5391 17.1744 17.5391 17.029V9.29566C17.5389 9.21891 17.5226 9.14306 17.4913 9.073C17.4599 9.00295 17.4142 8.94026 17.3571 8.88899L11.3283 3.4718Z" fill="black"/>
</svg>
