<svg width="41" height="41" viewBox="0 0 41 41" fill="none" xmlns="http://www.w3.org/2000/svg">
<rect width="40.1902" height="40.1902" rx="3.70993" fill="#F4F4F4"/>
<path fill-rule="evenodd" clip-rule="evenodd" d="M15.8712 14.8139C15.8712 13.6934 16.3163 12.6187 17.1087 11.8264C17.901 11.034 18.9757 10.5889 20.0962 10.5889C21.2168 10.5889 22.2914 11.034 23.0838 11.8264C23.8762 12.6187 24.3213 13.6934 24.3213 14.8139C24.3213 15.9345 23.8762 17.0091 23.0838 17.8015C22.2914 18.5938 21.2168 19.039 20.0962 19.039C18.9757 19.039 17.901 18.5938 17.1087 17.8015C16.3163 17.0091 15.8712 15.9345 15.8712 14.8139ZM15.8712 21.1515C14.4705 21.1515 13.1271 21.7079 12.1367 22.6984C11.1463 23.6888 10.5898 25.0321 10.5898 26.4328C10.5898 27.2733 10.9237 28.0793 11.518 28.6735C12.1122 29.2678 12.9182 29.6016 13.7586 29.6016H26.4338C27.2742 29.6016 28.0802 29.2678 28.6745 28.6735C29.2688 28.0793 29.6026 27.2733 29.6026 26.4328C29.6026 25.0321 29.0462 23.6888 28.0557 22.6984C27.0653 21.7079 25.722 21.1515 24.3213 21.1515H15.8712Z" fill="#A5A5A5"/>
</svg>
