<svg width="27" height="28" viewBox="0 0 27 28" fill="none" xmlns="http://www.w3.org/2000/svg">
<circle cx="13.5" cy="14" r="13.5" fill="#D9D9D9"/>
<path fill-rule="evenodd" clip-rule="evenodd" d="M10.3075 9.43265C10.3075 8.46359 10.6925 7.53422 11.3777 6.849C12.063 6.16377 12.9923 5.77881 13.9614 5.77881C14.9304 5.77881 15.8598 6.16377 16.545 6.849C17.2303 7.53422 17.6152 8.46359 17.6152 9.43265C17.6152 10.4017 17.2303 11.3311 16.545 12.0163C15.8598 12.7015 14.9304 13.0865 13.9614 13.0865C12.9923 13.0865 12.063 12.7015 11.3777 12.0163C10.6925 11.3311 10.3075 10.4017 10.3075 9.43265ZM10.3075 14.9134C9.09622 14.9134 7.9345 15.3946 7.07797 16.2512C6.22143 17.1077 5.74023 18.2694 5.74023 19.4807C5.74023 20.2075 6.02895 20.9046 6.54287 21.4185C7.0568 21.9324 7.75382 22.2211 8.48062 22.2211H19.4422C20.169 22.2211 20.866 21.9324 21.3799 21.4185C21.8938 20.9046 22.1825 20.2075 22.1825 19.4807C22.1825 18.2694 21.7013 17.1077 20.8448 16.2512C19.9883 15.3946 18.8266 14.9134 17.6152 14.9134H10.3075Z" fill="white"/>
</svg>
