<svg width="22" height="22" viewBox="0 0 22 22" fill="none" xmlns="http://www.w3.org/2000/svg">
<path fill-rule="evenodd" clip-rule="evenodd" d="M7.30754 6.4329C7.30754 5.46384 7.6925 4.53447 8.37773 3.84924C9.06296 3.16401 9.99233 2.77905 10.9614 2.77905C11.9304 2.77905 12.8598 3.16401 13.545 3.84924C14.2303 4.53447 14.6152 5.46384 14.6152 6.4329C14.6152 7.40196 14.2303 8.33133 13.545 9.01656C12.8598 9.70179 11.9304 10.0867 10.9614 10.0867C9.99233 10.0867 9.06296 9.70179 8.37773 9.01656C7.6925 8.33133 7.30754 7.40196 7.30754 6.4329ZM7.30754 11.9137C6.09622 11.9137 4.9345 12.3949 4.07797 13.2514C3.22143 14.1079 2.74023 15.2696 2.74023 16.481C2.74023 17.2078 3.02895 17.9048 3.54287 18.4187C4.0568 18.9326 4.75382 19.2214 5.48062 19.2214H16.4422C17.169 19.2214 17.866 18.9326 18.3799 18.4187C18.8938 17.9048 19.1825 17.2078 19.1825 16.481C19.1825 15.2696 18.7013 14.1079 17.8448 13.2514C16.9883 12.3949 15.8266 11.9137 14.6152 11.9137H7.30754Z" fill="#777777"/>
</svg>
