<svg width="39" height="39" viewBox="0 0 39 39" fill="none" xmlns="http://www.w3.org/2000/svg">
<path d="M11.9153 14.1324C11.7266 14.7789 11.7042 15.4626 11.8502 16.1201C11.2801 16.4809 10.8106 16.9799 10.4852 17.5709C10.1599 18.1618 9.98926 18.8255 9.98926 19.5001C9.98926 20.1747 10.1599 20.8384 10.4852 21.4293C10.8106 22.0203 11.2801 22.5193 11.8502 22.8801C11.7042 23.5376 11.7266 24.2213 11.9153 24.8678C12.1041 25.5143 12.4529 26.1027 12.9297 26.5784C13.4064 27.0541 13.9955 27.4018 14.6424 27.5891C15.2893 27.7765 15.973 27.7974 16.6302 27.6501C16.9914 28.218 17.4901 28.6855 18.0801 29.0094C18.67 29.3333 19.3322 29.5032 20.0052 29.5032C20.6782 29.5032 21.3404 29.3333 21.9303 29.0094C22.5203 28.6855 23.019 28.218 23.3802 27.6501C24.0377 27.7961 24.7213 27.7736 25.3679 27.5849C26.0144 27.3962 26.6027 27.0473 27.0785 26.5706C27.5542 26.0939 27.9018 25.5048 28.0892 24.8579C28.2765 24.211 28.2975 23.5273 28.1502 22.8701C28.7159 22.5084 29.1814 22.0101 29.5039 21.4211C29.8264 20.8322 29.9954 20.1715 29.9954 19.5001C29.9954 18.8286 29.8264 18.168 29.5039 17.579C29.1814 16.9901 28.7159 16.4918 28.1502 16.1301C28.2982 15.4719 28.2773 14.787 28.0895 14.1391C27.9017 13.4912 27.5531 12.9013 27.076 12.4243C26.599 11.9472 26.0091 11.5986 25.3612 11.4108C24.7133 11.223 24.0284 11.2021 23.3702 11.3501C23.0085 10.7844 22.5102 10.3189 21.9212 9.99638C21.3323 9.67391 20.6716 9.50488 20.0002 9.50488C19.3287 9.50488 18.6681 9.67391 18.0791 9.99638C17.4902 10.3189 16.9919 10.7844 16.6302 11.3501C15.973 11.2028 15.2893 11.2237 14.6424 11.4111C13.9955 11.5984 13.4064 11.9461 12.9297 12.4218C12.4529 12.8975 12.1041 13.4859 11.9153 14.1324Z" fill="#006ACB" stroke="white" stroke-width="2" stroke-linecap="round" stroke-linejoin="round"/>
<path d="M17 19.5L19 21.5L23 17.5" stroke="white" stroke-width="2" stroke-linecap="round" stroke-linejoin="round"/>
</svg>
