<svg width="123" height="24" viewBox="0 0 123 24" fill="none" xmlns="http://www.w3.org/2000/svg">
<g clip-path="url(#clip0_785_200)">
<path d="M19.3273 22.0972L14.6828 22.9663L13.1074 19.191H8.73453L8.08266 22.2329L0.776367 22.0972L5.23076 0.341309L14.6828 0.748721L19.3273 22.0972ZM10.6629 13.6502L8.92464 6.26239L7.2135 13.6502H10.6629Z" fill="black"/>
<path d="M19.8594 22.1243L20.4568 0.422732L25.9161 0.259766L26.2965 14.5464L28.8766 14.6279L28.4965 0.259766L35.8842 0.422732L36.4274 22.2602L19.8594 22.1243Z" fill="black"/>
<path d="M41.1918 22.0972L41.0289 7.376L37.0635 6.96858L37.3351 0.341309L52.355 0.585757L52.3278 6.45252L48.3081 7.13155L48.1722 22.2329L41.1918 22.0972Z" fill="black"/>
<path d="M52.9883 21.9613L53.2872 0.558537L60.7292 0.151123L60.6207 9.19571L63.3096 8.84263L63.9613 0.151123L70.2627 0.36841L69.5565 22.0429L65.2923 22.2329L64.5318 14.4106L61.8158 14.5736L61.707 22.3145L52.9883 21.9613Z" fill="black"/>
<path d="M71.3428 0.395752H87.4492L86.8244 22.1245H71.6686L71.3428 0.395752ZM79.5181 16.4479L80.0613 6.07238H77.4811L76.9379 16.4479H79.5181Z" fill="black"/>
<path d="M95.1314 14.8452L95.2399 22.2058L88.5312 22.1787L88.667 0.232666L103.443 0.748724L104.257 12.4008L102.112 12.9983L104.638 22.0972L98.0376 22.2603L96.0549 14.6551L95.1314 14.8452ZM95.2944 10.3637L97.603 10.0378L98.0105 5.7735L95.4844 5.63768L95.2944 10.3637Z" fill="black"/>
<path d="M122.918 22.0973L115.612 22.4232L114.851 19.1911H110.478L110.098 22.233L104.91 22.0973L109.093 0.612981L118.545 0.205566L122.918 22.0973ZM115.91 13.6502L114.172 6.28961L112.461 13.6502H115.91Z" fill="black"/>
</g>
<defs>
<clipPath id="clip0_785_200">
<rect width="122.224" height="23.0223" fill="white" transform="translate(0.776367 0.0380859)"/>
</clipPath>
</defs>
</svg>
